# xmcd CD database file
#
# Track frame offsets:
#	150
#	23265
#	36922
#	48862
#	62330
#	80947
#	90972
#	108497
#	118907
#	134315
#	156092
#	165497
#	177762
#	191097
#	201942
#	215282
#	228947
#	241009
#	255184
#	269412
#
# Disc length: 3753 seconds
#
# Revision: 0
# Processed by: cddbd v1.5.2PL0 Copyright (c) Steve Scherf et al.
# Submitted via: CDex 2.16
#
DISCID=fd0ea714
DTITLE=Charlie Parker - Chasin' the Bird
DYEAR=1993
DGENRE=Jazz
TTITLE0=How High the Moon
TTITLE1=Moose the Mooch
TTITLE2=Yardbird Suite
TTITLE3=Crazeology
TTITLE4=Slow Boat to China
TTITLE5=Riff Raff
TTITLE6=Scrapple From The Apple
TTITLE7=Star Eyes
TTITLE8=Sly Mongoose
TTITLE9='Round Midnight
TTITLE10=Theme
TTITLE11=Don't Blame Me
TTITLE12=Relaxin'in Camarillo
TTITLE13=Constellation
TTITLE14=Bluebird
TTITLE15=Parker's Mood
TTITLE16=Marmaduke
TTITLE17=Bird of Paradise
TTITLE18=My Old Flame
TTITLE19=Chasin' the Bird
EXTD=YEAR: 1993
EXTT0=
EXTT1=
EXTT2=
EXTT3=
EXTT4=
EXTT5=
EXTT6=
EXTT7=
EXTT8=
EXTT9=
EXTT10=
EXTT11=
EXTT12=
EXTT13=
EXTT14=
EXTT15=
EXTT16=
EXTT17=
EXTT18=
EXTT19=
PLAYORDER=
